<svg version="1.2" baseProfile="tiny-ps" xmlns="http://www.w3.org/2000/svg" viewBox="0 0 98 96" width="98" height="96">
	<title>Layer 1</title>
	<style>
		tspan { white-space:pre }
		.shp0 { fill: #ffffff } 
	</style>
	<g id="Layer 1">
		<path id="&lt;Path&gt;" class="shp0" d="M48.82 0.36C21.84 0.36 -0.04 22.24 -0.04 49.24C-0.04 70.82 13.96 89.14 33.38 95.6C35.82 96.05 36.72 94.54 36.72 93.25C36.72 92.09 36.67 89.01 36.65 84.94C27.59 86.91 22.1 84.72 20.19 78.39C18.71 74.62 16.9 72.24 14.76 71.24C11.8 69.22 11.92 68.23 15.1 68.27C18.37 68.5 20.86 70.18 22.58 73.3C26.94 80.77 34.02 78.61 36.81 77.36C37.25 74.21 38.51 72.05 39.91 70.83C29.06 69.6 17.65 65.4 17.65 46.68C17.65 41.34 19.55 36.98 22.68 33.56C22.18 32.33 20.5 27.36 23.16 20.63C25.89 19.76 30.37 21.43 36.6 25.64C40.49 24.56 44.67 24.02 48.83 24C52.98 24.02 57.16 24.56 61.07 25.64C67.28 21.43 71.76 19.76 74.49 20.63C77.16 27.36 75.48 32.33 74.98 33.56C78.11 36.98 80 41.34 80 46.68C80 65.45 68.57 69.58 57.69 70.79C59.44 72.3 61.01 75.28 61.01 79.84C61.01 86.37 60.95 91.65 60.95 93.25C60.95 94.55 61.83 96.08 64.31 95.6C83.71 89.12 97.7 70.82 97.7 49.24C97.7 22.24 75.81 0.36 48.82 0.36Z" />
	</g>
</svg>