<?xml version="1.0" encoding="utf-8"?>
<!-- Generator: Adobe Illustrator 25.4.1, SVG Export Plug-In . SVG Version: 6.00 Build 0)  -->
<svg version="1.1" id="Livello_1" xmlns="http://www.w3.org/2000/svg" xmlns:xlink="http://www.w3.org/1999/xlink" x="0px" y="0px"
	 viewBox="0 0 400 400" style="enable-background:new 0 0 400 400;" xml:space="preserve">
<style type="text/css">
	.st0{fill:#010202;}
	.st1{fill:#FFFFFF;}
	.st2{clip-path:url(#SVGID_00000128449828081179240020000013199204760526055852_);fill:#E83468;}
	.st3{fill:none;stroke:#FFFFFF;stroke-width:12;stroke-miterlimit:10;}
</style>
<rect x="212.4" y="-3.9" class="st0" width="187.8" height="191.5"/>
<rect y="-6.1" class="st0" width="187.8" height="193.7"/>
<rect y="212.2" class="st0" width="187.8" height="187.8"/>
<rect x="212.4" y="212.2" class="st0" width="187.8" height="187.8"/>
<g>
	<g>
		<path d="M-521.7,41.7c4.5,0,8,1.1,10.6,3.2c2.6,2.2,3.8,5.1,3.8,8.7c0,3.9-1.3,6.9-3.8,8.9c-2.6,2.1-6.1,3.1-10.5,3.1l-0.8,0.5
			h-8.5v15.2h-8.2V41.7H-521.7z M-522.6,59.8c2.3,0,4-0.5,5.2-1.4c1.1-0.9,1.7-2.4,1.7-4.4c0-2-0.6-3.4-1.7-4.3
			c-1.1-0.9-2.9-1.4-5.2-1.4h-8.3v11.5H-522.6z M-517.8,61.6l12.8,19.7h-9.3L-524.8,64L-517.8,61.6z"/>
		<path d="M-498.3,81.3V41.7h29.7v6.7H-490v9.8h16.9v6.4H-490v10.1h22.3v6.7H-498.3z"/>
		<path d="M-460.3,81.3V41.7h29.7v6.7h-21.4v9.8h16.9v6.4h-16.9v10.1h22.3v6.7H-460.3z"/>
		<path d="M-522.9,153.9c-3.6,0-6.8-0.8-9.6-2.4c-2.7-1.6-4.9-3.9-6.4-7c-1.5-3-2.3-6.7-2.3-11c0-4.2,0.8-7.9,2.4-10.9
			c1.6-3.1,3.9-5.4,6.8-7.1c2.9-1.6,6.3-2.5,10.2-2.5c4.3,0,7.7,0.8,10.4,2.4c2.6,1.6,4.7,4,6.3,7.4l-7.7,3.3
			c-0.6-2.1-1.7-3.7-3.3-4.7c-1.5-1-3.4-1.5-5.7-1.5c-2.2,0-4.2,0.5-5.8,1.6c-1.6,1.1-2.9,2.6-3.8,4.6c-0.9,2-1.3,4.5-1.3,7.4
			c0,3,0.4,5.5,1.3,7.6c0.8,2.1,2.1,3.6,3.8,4.6c1.7,1,3.7,1.5,6.1,1.5c1.3,0,2.6-0.2,3.7-0.5c1.1-0.3,2.1-0.8,3-1.4
			c0.8-0.6,1.5-1.5,2-2.5c0.5-1,0.7-2.2,0.7-3.5v-0.9h-10.4v-6.1h17.5v20.9h-5.8l-0.6-8.6l1.4,1c-0.9,2.6-2.4,4.7-4.6,6.1
			C-516.7,153.2-519.5,153.9-522.9,153.9z"/>
		<path d="M-478.6,113.1c3.9,0,7.3,0.8,10.1,2.5c2.8,1.6,5,4,6.6,7c1.5,3,2.3,6.7,2.3,10.9c0,4.2-0.8,7.9-2.3,10.9
			c-1.5,3-3.7,5.4-6.6,7c-2.8,1.6-6.2,2.5-10.1,2.5c-3.9,0-7.3-0.8-10.2-2.5c-2.9-1.6-5.1-4-6.6-7c-1.5-3-2.3-6.7-2.3-10.9
			c0-4.2,0.8-7.9,2.3-10.9c1.5-3,3.7-5.4,6.6-7C-485.9,113.9-482.6,113.1-478.6,113.1z M-478.6,119.9c-2.2,0-4.1,0.5-5.7,1.6
			c-1.6,1-2.8,2.6-3.6,4.6c-0.8,2-1.2,4.5-1.2,7.5c0,2.9,0.4,5.4,1.2,7.4c0.8,2,2,3.6,3.6,4.6c1.6,1,3.5,1.6,5.7,1.6
			c2.2,0,4.1-0.5,5.6-1.6c1.6-1,2.8-2.6,3.6-4.6c0.8-2,1.2-4.5,1.2-7.4c0-3-0.4-5.4-1.2-7.5c-0.8-2-2-3.5-3.6-4.6
			C-474.6,120.4-476.4,119.9-478.6,119.9z"/>
	</g>
</g>
<rect x="-340.1" y="-97" width="193.5" height="193.5"/>
<rect x="-340.1" y="-97" class="st0" width="96.8" height="96.8"/>
<rect x="-340.1" y="-0.2" class="st0" width="96.8" height="96.8"/>
<rect x="-243.3" y="-97" class="st0" width="96.8" height="96.8"/>
<rect x="-243.3" y="-0.2" class="st0" width="96.8" height="96.8"/>
<g>
	<g>
		<path class="st1" d="M-292.1-75c4.5,0,8,1.1,10.6,3.2c2.6,2.2,3.8,5.1,3.8,8.7c0,3.9-1.3,6.9-3.8,8.9c-2.6,2.1-6.1,3.1-10.5,3.1
			l-0.8,0.5h-8.5v15.2h-8.2V-75H-292.1z M-293-56.9c2.3,0,4-0.5,5.2-1.4c1.1-0.9,1.7-2.4,1.7-4.4c0-2-0.6-3.4-1.7-4.3
			c-1.1-0.9-2.9-1.4-5.2-1.4h-8.3v11.5H-293z M-288.2-55.2l12.8,19.7h-9.3l-10.6-17.3L-288.2-55.2z"/>
	</g>
</g>
<g>
	<g>
		<path class="st1" d="M-209.7-64.8l10.6,3.6l8.6,4.5l-0.8,2.4L-192-52l-9.6-1.4l-10.6-3.3L-209.7-64.8z M-193.2-55.8l2,1.4l2,1.4
			l-4.2,8.8l-6.5,9.1l-6.9-5l6.7-8.9L-193.2-55.8z M-187-75.1l-0.2,11.1l-1.6,9.6h-2.5h-2.5l-1.6-9.6l-0.3-11.1H-187z M-189.3-55.8
			l7.1,6.8l6.6,8.9l-6.9,5l-6.5-9.1l-4.2-8.8l2-1.4L-189.3-55.8z M-172.8-64.8l2.6,8.1l-10.6,3.3l-9.6,1.4l-0.8-2.4l-0.8-2.4
			l8.6-4.5L-172.8-64.8z"/>
	</g>
</g>
<g>
	<g>
		<path class="st1" d="M-190.8,28.7c3.9,0,7.3,0.8,10.1,2.5c2.8,1.6,5,4,6.6,7c1.5,3,2.3,6.7,2.3,10.9c0,4.2-0.8,7.9-2.3,10.9
			c-1.5,3-3.7,5.4-6.6,7c-2.8,1.6-6.2,2.5-10.1,2.5c-3.9,0-7.3-0.8-10.2-2.5c-2.9-1.6-5.1-4-6.6-7c-1.5-3-2.3-6.7-2.3-10.9
			c0-4.2,0.8-7.9,2.3-10.9c1.5-3,3.7-5.4,6.6-7C-198.1,29.5-194.7,28.7-190.8,28.7z M-190.8,35.5c-2.2,0-4.1,0.5-5.7,1.6
			c-1.6,1-2.8,2.6-3.6,4.6c-0.8,2-1.2,4.5-1.2,7.5c0,2.9,0.4,5.4,1.2,7.4c0.8,2,2,3.6,3.6,4.6c1.6,1,3.5,1.6,5.7,1.6
			c2.2,0,4.1-0.5,5.6-1.6c1.6-1,2.8-2.6,3.6-4.6c0.8-2,1.2-4.5,1.2-7.4c0-3-0.4-5.4-1.2-7.5c-0.8-2-2-3.5-3.6-4.6
			C-186.7,36-188.6,35.5-190.8,35.5z"/>
	</g>
</g>
<g>
	<g>
		<path class="st1" d="M-296.2,69.5c-3.6,0-6.8-0.8-9.6-2.4c-2.7-1.6-4.9-3.9-6.4-7c-1.5-3-2.3-6.7-2.3-11c0-4.2,0.8-7.9,2.4-10.9
			c1.6-3.1,3.9-5.4,6.8-7.1c2.9-1.6,6.3-2.5,10.2-2.5c4.3,0,7.7,0.8,10.4,2.4c2.6,1.6,4.7,4,6.3,7.4l-7.7,3.3
			c-0.6-2.1-1.7-3.7-3.3-4.7c-1.5-1-3.4-1.5-5.7-1.5s-4.2,0.5-5.8,1.6c-1.6,1.1-2.9,2.6-3.8,4.6c-0.9,2-1.3,4.5-1.3,7.4
			c0,3,0.4,5.5,1.3,7.6c0.8,2.1,2.1,3.6,3.8,4.6c1.7,1,3.7,1.5,6.2,1.5c1.3,0,2.5-0.2,3.7-0.5c1.1-0.3,2.1-0.8,3-1.4
			c0.8-0.6,1.5-1.5,2-2.5c0.5-1,0.7-2.2,0.7-3.5v-0.9h-10.4V48h17.5v20.9h-5.8l-0.6-8.6l1.4,1c-0.9,2.6-2.4,4.7-4.6,6.1
			C-290.1,68.8-292.9,69.5-296.2,69.5z"/>
	</g>
</g>
<circle cx="-457.8" cy="-77.3" r="69.7"/>
<g>
	<g>
		<path class="st1" d="M-454.2-148.8c14.5,0,25.9,3.8,34.2,11.3c8.3,7.5,12.4,17.6,12.4,30.3c0,13.5-4.1,23.9-12.4,31.1
			c-8.3,7.2-19.6,10.8-34,10.8l-2.7,1.7h-27.6v52.9h-26.4v-138H-454.2z M-457.3-85.6c7.5,0,13.1-1.6,16.8-4.9
			c3.7-3.3,5.5-8.3,5.5-15.2c0-6.8-1.8-11.9-5.5-15.2c-3.7-3.3-9.3-4.9-16.8-4.9h-27v40.2H-457.3z M-441.6-79.5l41.6,68.8h-30.1
			l-34.4-60.4L-441.6-79.5z"/>
	</g>
</g>
<rect x="-571.9" y="-147" class="st1" width="62.8" height="157.3"/>
<circle cx="-441.1" cy="425.8" r="69.7"/>
<g>
	<g>
		<path class="st1" d="M-373.7,279.7c5.2,0,9.3,1.3,12.3,4c3,2.7,4.5,6.3,4.5,10.9c0,4.9-1.5,8.6-4.5,11.1c-3,2.6-7,3.9-12.2,3.9
			l-1,0.6h-9.9v19h-9.5v-49.5H-373.7z M-374.8,302.4c2.7,0,4.7-0.6,6-1.8c1.3-1.2,2-3,2-5.4c0-2.4-0.7-4.3-2-5.4
			c-1.3-1.2-3.3-1.8-6-1.8h-9.7v14.4H-374.8z M-369.2,304.6l14.9,24.7h-10.8l-12.3-21.7L-369.2,304.6z"/>
	</g>
</g>
<g>
	<g>
		<path class="st1" d="M-348.8,275.3l5,1.7l4,2.1l-0.4,1.1l-0.4,1.1l-4.5-0.7l-5-1.6L-348.8,275.3z M-341,279.5l0.9,0.7l0.9,0.7
			l-2,4.1l-3,4.3l-3.2-2.4l3.2-4.2L-341,279.5z M-338.1,270.5l-0.1,5.2l-0.8,4.5h-1.2h-1.2l-0.8-4.5l-0.1-5.2H-338.1z M-339.2,279.5
			l3.3,3.2l3.1,4.2l-3.2,2.4l-3-4.3l-2-4.1l0.9-0.7L-339.2,279.5z M-331.4,275.3l1.2,3.8l-5,1.6l-4.5,0.7l-0.4-1.1l-0.4-1.1l4-2.1
			L-331.4,275.3z"/>
	</g>
</g>
<g>
	<g>
		<path d="M-238.2,314.7v-39.6h29.7v6.7h-21.4v9.8h16.9v6.4h-16.9v10.1h22.3v6.7H-238.2z"/>
	</g>
</g>
<g>
	<defs>
		<circle id="SVGID_1_" cx="-441.1" cy="425.8" r="69.7"/>
	</defs>
	<clipPath id="SVGID_00000087381308160945876750000018250075723781551746_">
		<use xlink:href="#SVGID_1_"  style="overflow:visible;"/>
	</clipPath>
	
		<rect x="-540.5" y="275.1" style="clip-path:url(#SVGID_00000087381308160945876750000018250075723781551746_);fill:#E83468;" width="65.5" height="269.8"/>
</g>
<g>
	<g>
		<path class="st1" d="M-455.2,439c5.9,0,10.6,1.5,14,4.6c3.4,3.1,5.1,7.2,5.1,12.4c0,5.5-1.7,9.8-5.1,12.7c-3.4,2.9-8,4.4-13.9,4.4
			l-1.1,0.7h-11.3v21.7h-10.8V439H-455.2z M-456.5,464.8c3.1,0,5.4-0.7,6.9-2c1.5-1.3,2.3-3.4,2.3-6.2c0-2.8-0.8-4.9-2.3-6.2
			c-1.5-1.3-3.8-2-6.9-2h-11.1v16.4H-456.5z M-450,467.3l17,28.2h-12.3l-14.1-24.7L-450,467.3z"/>
	</g>
</g>
<line class="st3" x1="-475" y1="665.9" x2="-475" y2="325.1"/>
<line class="st3" x1="-243.3" y1="208.6" x2="-243.3" y2="-132.2"/>
<line class="st3" x1="-396" y1="-3.9" x2="-55.2" y2="-3.9"/>
<g>
	<g>
		<path class="st1" d="M99,44.1c9.3,0,16.6,2.2,21.9,6.7c5.3,4.5,7.9,10.5,7.9,18c0,8-2.7,14.2-7.9,18.4c-5.3,4.3-12.5,6.4-21.7,6.4
			l-1.7,1H79.8v31.4H62.9v-82H99z M97,81.6c4.8,0,8.4-1,10.7-2.9c2.4-1.9,3.5-4.9,3.5-9c0-4.1-1.2-7.1-3.5-9
			c-2.4-1.9-5.9-2.9-10.7-2.9H79.8v23.8H97z M107.1,85.2l26.6,40.9h-19.2l-22-35.9L107.1,85.2z"/>
	</g>
</g>
<g>
	<g>
		<path class="st1" d="M269.4,65.3l22,7.4l17.8,9.3l-1.6,4.9l-1.6,4.9l-19.9-3l-22-6.9L269.4,65.3z M303.5,83.9l4,3l4,3l-8.8,18.1
			l-13.4,18.8l-14.2-10.4L289.1,98L303.5,83.9z M316.4,44L316,67l-3.3,19.9h-5.1h-5.1L299.1,67l-0.5-23H316.4z M311.6,83.9L326.2,98
			l13.7,18.5l-14.2,10.4L312.3,108l-8.8-18.1l4-3L311.6,83.9z M345.8,65.3L351,82l-22,6.9l-19.9,3l-1.6-4.9L306,82l17.8-9.3
			L345.8,65.3z"/>
	</g>
</g>
<g>
	<g>
		<path class="st1" d="M308.6,258.8c8.1,0,15.1,1.7,21,5.1c5.9,3.4,10.4,8.2,13.6,14.5c3.2,6.3,4.8,13.8,4.8,22.6
			c0,8.8-1.6,16.3-4.8,22.6c-3.2,6.3-7.7,11.1-13.6,14.5c-5.9,3.4-12.9,5.1-21,5.1c-8.1,0-15.1-1.7-21-5.1
			c-5.9-3.4-10.5-8.2-13.7-14.5c-3.2-6.3-4.8-13.8-4.8-22.6c0-8.8,1.6-16.3,4.8-22.6c3.2-6.3,7.7-11.1,13.7-14.5
			C293.4,260.5,300.5,258.8,308.6,258.8z M308.6,272.9c-4.6,0-8.6,1.1-11.8,3.2c-3.2,2.2-5.7,5.3-7.4,9.5c-1.7,4.2-2.5,9.3-2.5,15.5
			c0,6,0.8,11.2,2.5,15.4c1.7,4.2,4.2,7.4,7.4,9.6c3.2,2.2,7.2,3.2,11.8,3.2c4.6,0,8.4-1.1,11.7-3.2c3.2-2.2,5.7-5.3,7.4-9.6
			c1.7-4.2,2.5-9.4,2.5-15.4c0-6.1-0.8-11.3-2.5-15.5c-1.7-4.2-4.2-7.3-7.4-9.5C317,273.9,313.1,272.9,308.6,272.9z"/>
	</g>
</g>
<g>
	<g>
		<path class="st1" d="M90.4,343.3c-7.5,0-14.1-1.7-19.8-5c-5.7-3.3-10.1-8.1-13.2-14.4c-3.1-6.3-4.7-13.9-4.7-22.7
			c0-8.8,1.7-16.3,5-22.7c3.3-6.3,8-11.2,14.1-14.6c6.1-3.4,13.1-5.1,21.2-5.1c8.9,0,16,1.6,21.5,4.9c5.5,3.3,9.8,8.3,13,15.2
			l-15.9,6.8c-1.3-4.4-3.6-7.6-6.8-9.7c-3.2-2.1-7.1-3.2-11.7-3.2c-4.6,0-8.7,1.1-12,3.3c-3.4,2.2-6,5.4-7.8,9.6
			c-1.8,4.2-2.7,9.3-2.7,15.3c0,6.2,0.9,11.4,2.6,15.7c1.7,4.3,4.3,7.5,7.8,9.6c3.4,2.1,7.7,3.2,12.7,3.2c2.7,0,5.3-0.3,7.6-1
			c2.4-0.7,4.4-1.7,6.1-3c1.7-1.3,3.1-3,4.1-5.1c1-2.1,1.5-4.5,1.5-7.2v-1.9H91.4v-12.5h36.3V342h-12l-1.2-17.9l3,2.1
			c-1.8,5.5-5,9.7-9.6,12.6C103.1,341.8,97.3,343.3,90.4,343.3z"/>
	</g>
</g>
</svg>
