<?xml version="1.0" standalone="no"?>
<!DOCTYPE svg PUBLIC "-//W3C//DTD SVG 20010904//EN"
 "http://www.w3.org/TR/2001/REC-SVG-20010904/DTD/svg10.dtd">
<svg version="1.0" xmlns="http://www.w3.org/2000/svg"
 width="700.000000pt" height="700.000000pt" viewBox="0 0 700.000000 700.000000"
 preserveAspectRatio="xMidYMid meet">
<metadata>
Created by potrace 1.14, written by Peter Selinger 2001-2017
</metadata>
<g transform="translate(0.000000,700.000000) scale(0.100000,-0.100000)"
fill="#000000" stroke="none">
<path d="M995 6292 l0 -707 86 -120 c47 -66 130 -183 184 -260 54 -77 127
-180 162 -230 36 -49 102 -144 149 -210 46 -66 112 -158 145 -205 69 -96 391
-552 439 -620 80 -114 232 -329 258 -365 16 -22 121 -170 234 -330 112 -159
297 -420 409 -580 113 -159 223 -315 245 -346 21 -30 86 -122 144 -203 58 -81
112 -158 120 -169 8 -12 58 -83 110 -157 52 -74 103 -146 112 -160 30 -43 236
-335 245 -345 5 -5 29 -39 53 -75 25 -36 49 -69 53 -75 4 -5 33 -46 64 -90 31
-44 160 -226 287 -405 126 -179 276 -391 333 -472 57 -81 108 -150 112 -153 9
-5 1081 -17 1081 -12 0 1 -63 90 -140 197 -77 107 -145 203 -152 214 -7 10
-20 28 -29 40 -17 23 -316 438 -358 497 -46 65 -381 532 -405 564 -8 11 -104
144 -213 296 -109 152 -344 479 -523 727 -179 249 -352 490 -385 537 -33 46
-159 222 -280 390 -121 168 -240 334 -265 369 -25 35 -90 126 -145 202 -55 76
-107 148 -115 160 -15 23 -381 532 -515 716 -38 53 -86 120 -105 148 -19 28
-40 56 -45 63 -6 7 -60 82 -121 167 -62 85 -139 193 -173 240 -34 47 -81 112
-103 145 -23 33 -46 65 -50 70 -11 13 -29 37 -493 685 -219 305 -401 558 -404
562 -3 4 -6 -311 -6 -700z"/>
<path d="M2165 6895 c42 -60 102 -145 133 -189 31 -45 60 -85 65 -91 4 -5 100
-140 213 -300 113 -159 212 -299 220 -310 8 -11 161 -227 340 -480 179 -253
332 -469 340 -480 8 -11 56 -78 106 -150 50 -71 95 -132 98 -135 4 -3 9 -10
11 -16 2 -5 108 -155 234 -333 267 -375 301 -423 374 -528 30 -43 58 -79 63
-81 4 -2 8 -9 8 -15 0 -7 11 -25 25 -42 18 -22 294 -410 445 -625 95 -135 231
-325 238 -332 11 -11 34 6 137 107 72 70 176 189 208 235 109 160 143 215 199
330 120 244 180 461 225 805 16 123 9 573 -11 685 -2 14 -10 59 -16 100 -43
278 -159 584 -307 814 -375 582 -1033 964 -1868 1086 -44 6 -89 13 -100 15
-11 1 -56 6 -100 10 -44 4 -91 10 -105 12 -14 2 -301 7 -638 10 l-614 5 77
-107z"/>
<path d="M995 2012 l0 -2007 1418 -3 c779 -1 1417 1 1417 4 0 3 -100 147 -222
320 -123 173 -227 322 -233 332 -5 9 -13 19 -16 22 -3 3 -66 91 -139 195 -74
105 -222 314 -329 465 -107 151 -220 311 -251 355 -63 90 -72 102 -265 375
-76 107 -159 224 -184 260 -25 36 -99 142 -166 235 -66 94 -128 181 -137 195
-20 28 -350 494 -372 525 -8 11 -126 178 -261 370 -136 193 -250 353 -254 357
-3 4 -6 -896 -6 -2000z"/>
</g>
</svg>
